<svg id="Layer_1" data-name="Layer 1" xmlns="http://www.w3.org/2000/svg" xmlns:xlink="http://www.w3.org/1999/xlink" viewBox="0 0 48 48"><defs><style>.cls-1{fill:url(#Orange_Yellow);}.cls-2{fill:url(#Orange_Yellow-2);}.cls-3{fill:#1c75bc;}.cls-4{fill:#00264c;}.cls-5{fill:#fff;}.cls-6{fill:url(#Orange_Yellow-3);}.cls-7{fill:url(#Orange_Yellow-4);}.cls-8{fill:url(#Orange_Yellow-5);}.cls-9{fill:#ef4136;}.cls-10{fill:#7f8d8e;}</style><linearGradient id="Orange_Yellow" x1="5.97" y1="16.22" x2="36.87" y2="16.22" gradientUnits="userSpaceOnUse"><stop offset="0" stop-color="#fff33b"/><stop offset="0.04" stop-color="#fee72e"/><stop offset="0.12" stop-color="#fed51b"/><stop offset="0.2" stop-color="#fdca10"/><stop offset="0.28" stop-color="#fdc70c"/><stop offset="0.67" stop-color="#f3903f"/><stop offset="0.89" stop-color="#ed683c"/><stop offset="1" stop-color="#e93e3a"/></linearGradient><linearGradient id="Orange_Yellow-2" x1="28.82" y1="27.7" x2="43.3" y2="27.7" xlink:href="#Orange_Yellow"/><linearGradient id="Orange_Yellow-3" x1="31.28" y1="26.56" x2="40.91" y2="26.56" xlink:href="#Orange_Yellow"/><linearGradient id="Orange_Yellow-4" x1="30.53" y1="26.18" x2="40.93" y2="26.18" xlink:href="#Orange_Yellow"/><linearGradient id="Orange_Yellow-5" x1="34.52" y1="36.16" x2="37.03" y2="36.16" xlink:href="#Orange_Yellow"/></defs><path class="cls-1" d="M36.65,6.73c.29.15.21.43.21.67,0,2.94,0,5.88,0,8.83l-.64,0H29.75a1.47,1.47,0,0,0-1.57,1.58v.59l0,7.28c-7.18,0-14.37,0-21.55,0-.49,0-.63-.13-.63-.62C6,19.63,6,14.16,6,8.69A1.92,1.92,0,0,1,7.85,6.82c9.38,0,18.76,0,28.14,0C36.21,6.84,36.46,6.93,36.65,6.73Zm-13,9.89H18.05c-.3,0-.61,0-.6.43s.31.39.59.39h5.6l-.79.86c-.19.2-.23.42,0,.61a.38.38,0,0,0,.57-.05l1.44-1.52a.4.4,0,0,0,0-.61c-.48-.51-1-1-1.44-1.52a.39.39,0,0,0-.61,0,.38.38,0,0,0,0,.57Zm-4.87,4c.33-.35.56-.59.78-.84s.27-.41.05-.61-.45-.13-.65.08L17.6,20.67a.42.42,0,0,0,0,.66c.46.5.93,1,1.39,1.48.19.19.39.27.61.07s.15-.41,0-.61-.47-.51-.79-.85h5.62c.28,0,.56,0,.58-.4s-.27-.41-.56-.41H18.77Zm-.14-7.54c.78,0,.78,0,.78-.63,0-1,0-1-.64-1-.95,0-.95,0-.95.68C17.82,13.06,17.82,13.06,18.63,13.06Zm-7.17,2.37c.79,0,.79,0,.79-.62,0-1,0-1-.66-1-.91,0-.91,0-.91.65C10.68,15.43,10.68,15.43,11.46,15.43Zm8-5.55c0-.8,0-.8-.61-.8-1,0-1,0-1,.92,0,.67,0,.67.7.67C19.41,10.67,19.41,10.67,19.41,9.88Zm.81,0c0,.38-.21.88.59.82,1-.07,1,0,1-.69,0-.92,0-.92-.65-.92C20.22,9.08,20.22,9.08,20.22,9.87ZM9.11,9.08c-1,0-.84-.12-.84.63,0,1.08-.13.95.62,1,1,0,1,0,1-.72S9.86,9.08,9.11,9.08Zm7.07,1.59c.85,0,.85,0,.85-.83s0-.76-.91-.76c-.69,0-.69,0-.69.77S15.43,10.67,16.18,10.67ZM23.4,9.08c-.4,0-.89-.18-.82.6.08,1,0,1,.81,1s.81.1.81-.61C24.21,9.08,24.2,9.08,23.4,9.08Zm-9.55,6.35c.92,0,.8.1.8-.61,0-1,0-1-.7-1-.89,0-.89,0-.89.62C13.05,15.43,13.05,15.43,13.85,15.43Zm-4-.75c0-.84,0-.85-.85-.84s-.74-.11-.74.68,0,.91.88.91C9.86,15.43,9.86,15.43,9.86,14.68ZM17,12.25c0-.4.17-.88-.6-.82-1,.08-1,0-1,.7,0,.93,0,.93.74.93S17,13.06,17,12.25ZM14.65,9.86c0-.89.11-.77-.63-.78-1,0-1,0-1,.64,0,.95,0,.95.67.95C14.65,10.67,14.65,10.67,14.65,9.86Zm-.79,1.59c-.4,0-.89-.19-.82.6.08,1,0,1,.61,1,1,0,1,0,1-.68C14.65,11.45,14.65,11.45,13.86,11.45Zm-4,.77c0-.35.19-.84-.56-.79-1,.07-1,0-1,.68,0,1,0,1,.68,1C9.86,13.06,9.86,13.06,9.86,12.22Zm1.59-1.55c.88,0,.8.13.8-.67s0-.92-.69-.92c-.88,0-.88,0-.88.84S10.68,10.67,11.45,10.67Zm.06.78c-.83,0-.83,0-.83.64,0,1,0,1,.65,1,.92,0,.92,0,.92-.66C12.25,11.45,12.25,11.45,11.51,11.45Z"/><path class="cls-2" d="M43.07,17a1.19,1.19,0,0,1,.23.85q0,9.5,0,19a1.48,1.48,0,0,1-1.61,1.64H29.78a1.12,1.12,0,0,1-.86-.22c0-.33-.1-.66-.1-1q0-9.21,0-18.43a1.68,1.68,0,0,1,1.94-1.92H41.59A5.23,5.23,0,0,1,43.07,17ZM31.29,33.74h9.54c.1,0,.1-.1.08-.19V19.39c.06-.76.06-.76-.7-.76-3,0-6,0-9.05,0-.49,0-.62.14-.62.63,0,4.58,0,9.17,0,13.76C30.54,33.77,30.54,33.77,31.29,33.74Zm4.47,1.62h-.9c-.14,0-.33,0-.33.18,0,.42,0,.85,0,1.27,0,.17.18.15.3.15h1.81c.22,0,.31-.09.33-.31.14-1.27.12-1.3-1.15-1.3Z"/><path class="cls-3" d="M28.18,36.54H9.31c-.31,0-.62,0-.62-.41s.33-.4.63-.4c1.82,0,3.65,0,5.47,0,.33,0,.51-.08.61-.42q.9-2.94,1.84-5.86c.14-.43,0-.49-.39-.49-3.25,0-6.5,0-9.75,0A1.69,1.69,0,0,1,6,28.74a6.75,6.75,0,0,1-.1-1.49c0-.68,0-.68.7-.68H28.16V29c-1.18,0-2.35,0-3.53,0-.44,0-.44.13-.32.48.2.57.35,1.15.55,1.72.5,1.51.89,3.06,1.47,4.55,0,.07.08.08.14,0l1.7,0Zm-7.41-.81H25c.36,0,.52,0,.38-.46-.64-2-1.25-3.93-1.86-5.91A.45.45,0,0,0,23,29c-1.44,0-2.89,0-4.34,0a.44.44,0,0,0-.53.37c-.6,2-1.21,3.95-1.85,5.91-.14.42,0,.48.37.47Z"/><path class="cls-4" d="M36.65,6.73c-.19.2-.44.11-.66.11-9.38,0-18.76,0-28.14,0A1.92,1.92,0,0,0,6,8.69C6,14.16,6,19.63,6,25.1c0,.49.14.62.63.62,7.18,0,14.37,0,21.55,0l0,.1H5.12V7.71A1.71,1.71,0,0,1,7,5.88H35A1.54,1.54,0,0,1,36.65,6.73Z"/><path class="cls-3" d="M23.75,42.11H5.2c-.28,0-.5-.11-.5-.43s.23-.38.49-.39H42c.34,0,.86-.16.85.43s-.5.39-.83.39Z"/><path class="cls-4" d="M28.18,25.81l0-.1,0-7.28v-.59a1.47,1.47,0,0,1,1.57-1.58h6.48l.64,0,4.86,0a1.32,1.32,0,0,1,1.34.78,5.23,5.23,0,0,0-1.48-.11H30.76a1.68,1.68,0,0,0-1.94,1.92q0,9.21,0,18.43c0,.34.09.67.1,1-.74-.36-.76-1-.74-1.73v-.82c0-2.25,0-4.49,0-6.74,0-.8,0-1.61,0-2.42Z"/><path class="cls-4" d="M28.18,25.81l0,.75H6.58c-.7,0-.69,0-.7.68A6.75,6.75,0,0,0,6,28.74a1.44,1.44,0,0,1-.86-1.35c0-.52,0-1.05,0-1.58Z"/><path class="cls-3" d="M17.08,38.9h5.15a1.94,1.94,0,0,1,.48,0,.37.37,0,0,1,.29.4.36.36,0,0,1-.29.35,2.52,2.52,0,0,1-.48,0H11.57c-.29,0-.52-.12-.5-.43s.22-.39.49-.39h5.52Z"/><path class="cls-5" d="M23.64,16.62l-.8-.87a.38.38,0,0,1,0-.57.39.39,0,0,1,.61,0c.49.5,1,1,1.44,1.52a.4.4,0,0,1,0,.61L23.4,18.86a.38.38,0,0,1-.57.05c-.21-.19-.17-.41,0-.61l.79-.86H18c-.28,0-.57,0-.59-.39s.3-.43.6-.43Z"/><path class="cls-5" d="M18.77,20.6h5.64c.29,0,.57,0,.56.41s-.3.4-.58.4H18.77c.32.34.56.59.79.85s.24.41,0,.61-.42.12-.61-.07c-.46-.49-.93-1-1.39-1.48a.42.42,0,0,1,0-.66L19,19.23c.2-.21.43-.3.65-.08s.13.42-.05.61S19.1,20.25,18.77,20.6Z"/><path class="cls-5" d="M18.63,13.06c-.81,0-.81,0-.81-.93,0-.68,0-.68.95-.68.64,0,.64,0,.64,1C19.41,13.06,19.41,13.06,18.63,13.06Z"/><path class="cls-5" d="M11.46,15.43c-.78,0-.78,0-.78-.94,0-.65,0-.65.91-.65.67,0,.67,0,.66,1C12.25,15.43,12.25,15.43,11.46,15.43Z"/><path class="cls-5" d="M19.41,9.88c0,.79,0,.79-.89.79-.7,0-.7,0-.7-.67,0-.92,0-.92,1-.92C19.41,9.08,19.41,9.08,19.41,9.88Z"/><path class="cls-5" d="M20.22,9.87c0-.79,0-.79.94-.79.65,0,.65,0,.65.92,0,.67,0,.62-1,.69C20,10.75,20.25,10.25,20.22,9.87Z"/><path class="cls-5" d="M9.11,9.08c.75,0,.75,0,.75.87s0,.73-1,.72c-.75,0-.62.12-.62-1C8.27,9,8.15,9.09,9.11,9.08Z"/><path class="cls-5" d="M16.18,10.67c-.75,0-.75,0-.75-.82s0-.77.69-.77c.91,0,.91,0,.91.76S17,10.67,16.18,10.67Z"/><path class="cls-5" d="M23.4,9.08c.8,0,.81,0,.8,1,0,.71.1.61-.81.61s-.73,0-.81-1C22.51,8.9,23,9.1,23.4,9.08Z"/><path class="cls-5" d="M13.85,15.43c-.8,0-.8,0-.79-1,0-.62,0-.62.89-.62.7,0,.71,0,.7,1C14.65,15.53,14.77,15.42,13.85,15.43Z"/><path class="cls-5" d="M9.86,14.68c0,.75,0,.75-.71.75-.88,0-.89,0-.88-.91s-.09-.68.74-.68S9.86,13.84,9.86,14.68Z"/><path class="cls-5" d="M17,12.25c0,.81,0,.81-.86.81s-.74,0-.74-.93c0-.68,0-.62,1-.7C17.2,11.37,17,11.85,17,12.25Z"/><path class="cls-5" d="M14.65,9.86c0,.81,0,.81-.92.81-.68,0-.68,0-.67-.95,0-.64,0-.65,1-.64C14.76,9.09,14.64,9,14.65,9.86Z"/><path class="cls-5" d="M13.86,11.45c.79,0,.79,0,.79.93,0,.68,0,.68-1,.68-.59,0-.53,0-.61-1C13,11.26,13.46,11.48,13.86,11.45Z"/><path class="cls-5" d="M9.86,12.22c0,.84,0,.84-.91.84-.68,0-.68,0-.68-1,0-.66,0-.61,1-.68C10.05,11.38,9.83,11.87,9.86,12.22Z"/><path class="cls-5" d="M11.45,10.67c-.77,0-.77,0-.77-.75s0-.84.88-.84c.69,0,.7,0,.69.92S12.33,10.66,11.45,10.67Z"/><path class="cls-5" d="M11.51,11.45c.74,0,.74,0,.74,1,0,.66,0,.66-.92.66-.65,0-.65,0-.65-1C10.68,11.45,10.68,11.45,11.51,11.45Z"/><path class="cls-6" d="M40.83,33.73H31.29q0-6.93,0-13.86c0-.36.08-.5.48-.5H40.9c0,.36,0,.72,0,1.07a3.8,3.8,0,0,0,0,1.71v1.4a.44.44,0,0,0,0,.53v1.51a2.15,2.15,0,0,0,0,1.28V28a.42.42,0,0,0,0,.52v.65q-.13.11,0,.21v.44a.31.31,0,0,0,0,.42V32q-.13.1,0,.21v1.29ZM34.52,20.22c-.77,0-.77,0-.77.62,0,1,0,1,.65,1,.94,0,.94,0,.94-.9C35.34,20.22,35.34,20.22,34.52,20.22Zm0,4c.89,0,.78.11.79-.62,0-1,0-1-.59-1-1,0-1,0-1,.62C33.75,24.2,33.75,24.2,34.55,24.2ZM37,22.6c-.84,0-.84,0-.84.61,0,1,0,1,.74,1s.86,0,.86-1C37.72,22.6,37.72,22.6,37,22.6Zm-2.41,4c.91,0,.78.11.79-.61,0-1,0-1-.91-1-.68,0-.68,0-.68.94C33.75,26.57,33.75,26.57,34.55,26.57Zm3.17-.79c0-.8,0-.8-.61-.8-1,0-1,0-1,.64,0,.95,0,.95.67.95C37.72,26.57,37.72,26.57,37.72,25.78Zm-1.6,4.79c0,.89-.11.79.62.79,1.15,0,1,.11,1-.59,0-1,0-1-.67-1C36.12,29.77,36.12,29.77,36.12,30.57ZM34.55,29c.89,0,.78.11.79-.63,0-.94,0-.94-.68-.94-.91,0-.91,0-.91.71S33.75,29,34.55,29Zm3.17-.78c0-.78,0-.79-.88-.78s-.71-.11-.72.75,0,.81.71.81C37.72,29,37.72,29,37.72,28.17Z"/><path class="cls-7" d="M40.9,19.39H31.76c-.4,0-.48.14-.48.5q0,6.93,0,13.86c-.75,0-.75,0-.75-.73,0-4.59,0-9.18,0-13.76,0-.49.13-.63.62-.63,3,0,6,0,9.05,0C41,18.63,41,18.63,40.9,19.39Z"/><path class="cls-8" d="M35.76,35.36h.06c1.27,0,1.29,0,1.15,1.3,0,.22-.11.31-.33.31H34.83c-.12,0-.29,0-.3-.15,0-.42,0-.85,0-1.27,0-.19.19-.18.33-.18Z"/><path class="cls-9" d="M40.91,22.17a3.8,3.8,0,0,1,0-1.71Z"/><path class="cls-9" d="M40.91,26.89a2.15,2.15,0,0,1,0-1.28Z"/><path class="cls-9" d="M40.91,24.1a.44.44,0,0,1,0-.53Z"/><path class="cls-9" d="M40.91,28.49a.42.42,0,0,1,0-.52Z"/><path class="cls-9" d="M40.91,30.21a.31.31,0,0,1,0-.42Z"/><path class="cls-9" d="M40.91,29.35q-.13-.11,0-.21Z"/><path class="cls-9" d="M40.83,33.73l.08-.19C40.93,33.63,40.93,33.7,40.83,33.73Z"/><path class="cls-9" d="M40.91,32.25q-.13-.11,0-.21Z"/><path class="cls-10" d="M26.34,35.72l.14,0C26.42,35.8,26.38,35.79,26.34,35.72Z"/><path class="cls-5" d="M34.52,20.22c.82,0,.82,0,.82.69,0,.9,0,.9-.94.9-.65,0-.65,0-.65-1C33.75,20.22,33.75,20.22,34.52,20.22Z"/><path class="cls-5" d="M34.55,24.2c-.8,0-.8,0-.8-1,0-.62,0-.62,1-.62.59,0,.6,0,.59,1C35.33,24.31,35.44,24.19,34.55,24.2Z"/><path class="cls-5" d="M37,22.6c.76,0,.76,0,.76.64,0,1,0,1-.86,1s-.74,0-.74-1C36.12,22.6,36.12,22.6,37,22.6Z"/><path class="cls-5" d="M34.55,26.57c-.8,0-.8,0-.8-.65,0-.94,0-.94.68-.94.91,0,.92,0,.91,1C35.33,26.68,35.46,26.56,34.55,26.57Z"/><path class="cls-5" d="M37.72,25.78c0,.79,0,.79-.93.79-.67,0-.67,0-.67-.95,0-.64,0-.64,1-.64C37.72,25,37.72,25,37.72,25.78Z"/><path class="cls-5" d="M36.12,30.57c0-.8,0-.8.93-.8.67,0,.68,0,.67,1,0,.7.17.59-1,.59C36,31.36,36.13,31.46,36.12,30.57Z"/><path class="cls-5" d="M34.55,29c-.8,0-.8,0-.8-.86s0-.71.91-.71c.68,0,.69,0,.68.94C35.33,29.06,35.44,28.94,34.55,29Z"/><path class="cls-5" d="M37.72,28.17c0,.78,0,.78-.89.78-.71,0-.71,0-.71-.81s-.13-.75.72-.75S37.72,27.39,37.72,28.17Z"/><path class="cls-3" d="M20.83,31.84a.76.76,0,0,1,.71.78.74.74,0,0,1-.77.71.75.75,0,0,1-.72-.77A.78.78,0,0,1,20.83,31.84Z"/></svg>