<svg id="Layer_1" data-name="Layer 1" xmlns="http://www.w3.org/2000/svg" viewBox="0 0 527.51 151.22"><defs><style>.cls-1,.cls-2,.cls-3{fill:#fff;}.cls-2{font-size:97.72px;}.cls-2,.cls-3{font-family:Albino;}.cls-3{font-size:54.75px;letter-spacing:0.08em;}</style></defs><path class="cls-1" d="M540.05,75.31c-2.58,2.82-6.21,3.83-9.33,5.66-.71.41-1.48.66-1.55,1.57-.09,1.08.83,1.09,1.53,1.46,4.77,2.51,9.49,5.12,14.23,7.69,1.14.62,2.31,1.18,3.43,1.82.9.52,1.48-.06,2.15-.47,3.19-2,6.37-3.89,9.57-5.8a7.68,7.68,0,0,1,1.42-.51c.59,1.24,0,2-.94,2.56-2.77,1.65-5.53,3.35-8.35,4.93-1.25.69-2.06,1.49-2,3a25.18,25.18,0,0,1,0,3.25c-.09,1.83.13,3.22,2.21,4.13,2.31,1,2.39,5.34.14,6.57-3.08,1.67-2.6,4.35-2.5,7,0,1.16.77,1.45,1.8.91l7.45-3.87c.73-.38,1.7-1.28,2.23-.46.68,1.09-.42,1.75-1.37,2.24-2.88,1.48-5.73,3-8.59,4.51a5,5,0,0,0-.72.47c-1.79,1.51-1.25,8.38.75,9.59,2.48,1.48,2.6,4.65.13,6.05a3.11,3.11,0,0,0-1.85,3.51c.5,3.21-.78,5.07-3.78,6.56-5.95,2.94-11.69,6.32-17.44,9.65-1.84,1.06-3.35.41-4.86-.42-5.76-3.12-11.48-6.3-17.21-9.47-1.81-1-2.12-.88-2.13,1.11,0,2.15-.48,4.25,1.93,5.93,2.11,1.46,1.56,4.78-.66,6.21a2.42,2.42,0,0,0-1.29,2.3c0,.57,0,1.15,0,1.73,0,3.87,1.3,5.49,5,6.83a41.51,41.51,0,0,1,6.67,3.33c3.15,1.87,6.33,3.67,9.64,5.22a4.18,4.18,0,0,1,2.43,4.62c-.2,2.29,0,4.06,2.76,5a4.62,4.62,0,0,1,2.77,5.17c-.3,2.3-.92,4.4-3.72,5.23-4.62,1.37-7.54.54-9.1-3.06a6,6,0,0,1,3.5-8.1,2.25,2.25,0,0,0,1.77-2.74c-.17-1.46.87-3.13-1.39-4.26-4.82-2.41-9.41-5.25-14.12-7.88-1.55-.87-3.15-1.64-4.74-2.43-.79-.4-1.38-.06-1.37.74,0,2.37-.77,4.9,1.65,6.81,1.27,1,1.07,3.34-.08,4.49a4,4,0,0,1-5.18.11c-1.36-1.21-1.82-3-.6-4.24,2.64-2.74,1.47-6,1.67-9,.07-.94-.74-1.59-1.63-2.07-4-2.11-7.89-4.29-11.82-6.45-1.82-1-3.61-2.1-5.47-3a3.82,3.82,0,0,0-3.71.4c-6.22,3.48-12.45,6.93-18.68,10.4-1.86,1-2.77.36-3-1.93-.65-6.14.2-12.26.2-18.39a4.77,4.77,0,0,0-3-4.86c-6-3.13-11.91-6.4-17.87-9.6-1.5-.8-1.83-2.12-1.82-3.65,0-4.33,0-8.67,0-13a2.91,2.91,0,0,0-1.25-2.75,3.83,3.83,0,0,1-.22-6.16c1.72-1.42,1.61-3.25,1.84-5.07a1.34,1.34,0,0,0-.78-1.43c-.25-.13-.5-.27-.75-.43-3.18-2.08-3.36-5.21-.43-7.56s2.8-4.15-.45-5.87c-6-3.17-12-6.29-17.94-9.41-1.58-.83-2.62-1.92-2.57-3.88.09-3,0-5.93,0-8.89,0-.79-.05-1.84.92-2s1.13,1.06,1.17,1.73c.15,2.74.21,5.49.16,8.23a3.05,3.05,0,0,0,1.91,3.35c6.23,3.15,12.33,6.56,18.45,9.93,1.42.78,2.54.1,3.63-.53Q446.91,83,455.13,79c2.12-1,3.44-2.31,3.11-5a62.24,62.24,0,0,1-.07-7.36c0-.93.13-1.8,1.33-1.83s1.19,1,1.19,1.84c0,3.26-.05,6.51,0,9.76a2.8,2.8,0,0,1-1.81,2.84c-6.26,3.23-12.51,6.49-18.65,9.94-3,1.66-3,3.28-.62,5.59,2.84,2.77,2.66,5.52-.52,8-2.55,2-2.58,4.1-.08,6.16,2.85,2.34,2.79,5-.25,7a2.89,2.89,0,0,0-1.5,2.81c.09,3.39,0,6.79,0,10.19,0,2.23.8,2.79,2.59,1.62,6-3.91,12.42-6.95,18.55-10.58s12.41-7,18.69-10.34c2.25-1.21,3.43-2.61,3.32-5.4-.23-6.21,0-12.43-.12-18.65a3.69,3.69,0,0,1,2.3-3.91c5.9-2.83,11.7-5.85,17.55-8.8.71-.36,1.61-.63,1.73-1.49.13-1-.95-1.14-1.59-1.5-2.51-1.41-5-2.8-7.58-4.14-.67-.35-1.49-.59-1-1.51s1.27-.72,2-.3c3.34,1.85,6.7,3.64,10,5.55a3.12,3.12,0,0,0,3.42-.13c3.21-1.78,6.47-3.47,9.73-5.16.63-.33,1.57-.63,2,.06.55.93-.42,1.41-1.09,1.76-2.68,1.4-5.41,2.71-8.08,4.12-.52.28-1.32.44-1.36,1.25s.79.91,1.32,1.22c4.66,2.71,9.6,4.94,14.16,7.85a4,4,0,0,0,4.63,0c3-1.82,6.14-3.35,9.24-5A3,3,0,0,1,540.05,75.31Zm8.19,24.42c.14-2.39,0-4.22-2.52-5.49-5.13-2.6-10.07-5.58-15.28-8-3-1.41-3-1.46-3,1.94,0,6.29-.11,12.57-.09,18.85a3.82,3.82,0,0,1-2,3.76q-8.36,4.5-16.74,9c-.52.28-1.1.51-1.11,1.19a1.56,1.56,0,0,0,1,1.35c5.38,2.88,10.78,5.74,16.05,8.84,1.14.67,2.43,1.48,4,.59q8.31-4.58,16.74-8.91c2.21-1.14,3.66-2.47,2.74-5.21a3.34,3.34,0,0,1,0-1.93c.6-1.87-.13-2.86-1.76-3.81-2.91-1.69-3.22-5.73-.37-7.32A4.13,4.13,0,0,0,548.24,99.73Zm-45.88,26c-.06-.55.18-1.28-.46-1.72s-1.2.25-1.73.52c-4.6,2.37-9.16,4.82-13.78,7.15-2.47,1.25-3.78,2.82-3.64,5.89.26,5.69.07,11.41,0,17.12a3.17,3.17,0,0,0,1.91,3.25q7.91,4.2,15.68,8.61c.92.52,1.48.35,1.62-.48.34-2,.95-4-1.18-5.72-2.36-1.92-2.13-4.3.27-6.39a3.06,3.06,0,0,0,1.16-2.66,102.91,102.91,0,0,1-.14-10.39,3.67,3.67,0,0,0-1.65-3.42c-2.46-1.8-2.74-5-.35-6.64C502,129.46,502,127.64,502.36,125.72Zm23-28.66h.1v-10c0-2.19-.85-2.63-2.81-1.51-4.61,2.63-9.29,5.14-14.07,7.47-2.57,1.25-4.72,2.72-4,6.21s0,6.9,0,10.35c0,2.73.62,5.45.07,8.18a1.18,1.18,0,0,0,.46,1.35c.62.36,1.11-.07,1.6-.34q4.33-2.36,8.68-4.75c2.77-1.52,5.52-3.08,8.3-4.59a3,3,0,0,0,1.77-3.1C525.23,103.28,525.33,100.17,525.33,97.06Zm-64.93,24.8a4.43,4.43,0,0,0-2.37.39c-5.45,3.37-11.09,6.4-16.72,9.47-2.6,1.42-2.54,1.95.13,3.45,5.32,3,10.66,6,16,9a2.94,2.94,0,0,0,3.24-.12c5.47-3.34,11.14-6.32,16.8-9.32.74-.39,1.82-.55,1.91-1.57s-1-1.52-1.77-2c-4.17-2.28-8.33-4.57-12.56-6.73C463.34,123.58,462,122,460.4,121.86Zm22,9.76a5.54,5.54,0,0,0,1.28-.35c5.5-3,11-5.91,16.46-9,1.9-1,1.85-1.8,0-2.82-5.61-3.06-11.2-6.15-16.66-9.48a3.18,3.18,0,0,0-3.62.07c-4.64,2.75-9.37,5.34-14.07,8-1.15.64-2.92.75-2.9,2.47,0,1.54,1.51,1.65,2.7,1.86.06,0,.11.08.17.12,4.62,3,9.73,5,14.31,8A15.12,15.12,0,0,0,482.42,131.62Zm20-24.8h0c0-3.18-.05-6.35,0-9.52a2.75,2.75,0,0,0-1.56-2.81q-8-4.2-16-8.44c-1.36-.73-1.68-.26-1.79,1.15-.49,6.27-.06,12.54-.25,18.81a2.77,2.77,0,0,0,1.6,2.61q7.9,4.42,15.86,8.76c1.63.89,2.19.25,2.15-1.47C502.37,112.88,502.42,109.85,502.42,106.82ZM480.63,144c0-2,0-3.41,0-4.85,0-1.13.3-2.51-.83-3.16s-1.79.62-2.68,1c-.33.15-.62.36-.94.53-4.76,2.51-9.54,5-14.28,7.54A3.39,3.39,0,0,0,460,148.8a67.12,67.12,0,0,1,0,7.77c0,3.17-.13,6.34-.17,9.51,0,1.57.78,1.68,1.95,1,.93-.54,1.85-1.11,2.8-1.62q7.17-3.93,14.37-7.83a2.26,2.26,0,0,0,1.33-2.26C480.16,151.39,480.9,147.45,480.63,144Zm45.24-4.22h.32c0-1.08-.08-2.17,0-3.25a2.92,2.92,0,0,0-1.91-3.37c-2.72-1.29-5.27-2.95-7.9-4.43-3.27-1.82-6.55-3.61-9.82-5.44-.59-.34-1.15-.68-1.74-.06-.84.87-.32,5.88.69,6.69,3.76,3,3.76,5.38,0,8.27-1.8,1.38-1.43,5.71.51,6.76,3.86,2.09,7.68,4.24,11.52,6.35,2.09,1.15,4.16,2.31,6.29,3.38,1.24.63,2.06.41,2-1.26C525.84,148.87,525.87,144.33,525.87,139.78ZM504,93.4a9.65,9.65,0,0,0,1.62-.59q8.1-4.31,16.15-8.68c.6-.32,1.45-.5,1.43-1.43s-.86-1.09-1.46-1.42c-4.68-2.53-9.42-5-14-7.58a4.69,4.69,0,0,0-5.11-.11c-4.67,2.88-9.91,4.67-14.46,7.72-1,.69-3,.41-3.08,2-.13,1.88,2,1.54,3.07,2.16,4.47,2.6,9.05,5,13.6,7.5A3.5,3.5,0,0,0,504,93.4Zm24,51.39h-.11c0,2.89,0,5.78,0,8.67,0,1.48.6,1.78,1.89,1.22a60.89,60.89,0,0,0,7.1-3.89c3.13-1.9,6.41-3.56,9.51-5.52,2.19-1.39,2.42-5.93.22-7.28s-2.75-5-.57-6.21,2-2.88,2-4.7c0-1,.59-2.2-.48-2.79s-1.85.42-2.73.89c-4.77,2.53-9.5,5.12-14.35,7.5a3.73,3.73,0,0,0-2.44,3.66Zm3.87,49.94c0-2.49-1.87-4.22-4.67-4.26s-4.83,1.62-4.87,4.3c0,2.44,2.09,4.37,4.9,4.42A5.17,5.17,0,0,0,531.8,194.73Zm-25.49-60.28c0-2.1-1.28-3.32-3.1-3.15a2.55,2.55,0,0,0-2.61,2.82c0,1.7,1.13,2.66,3,2.65A2.55,2.55,0,0,0,506.31,134.45Zm-69.55-33a2.82,2.82,0,0,0,3-2.77A2.92,2.92,0,0,0,436.67,96c-1.56.12-2.82.76-2.83,2.59A3,3,0,0,0,436.76,101.4Zm115,7.1a2.74,2.74,0,0,0-2.69-3.08c-1.88,0-3,.94-3,2.54,0,2,1.4,2.61,2.89,2.73A2.39,2.39,0,0,0,551.78,108.5ZM503.53,155c-1.45.13-2.45.79-2.45,2.25a2.16,2.16,0,0,0,2.31,2.32c1.29,0,2.41-.64,2.38-2.22A2.26,2.26,0,0,0,503.53,155ZM439,112.52c0-1.88-1.41-2.15-2.78-2.21s-1.9,1-1.82,2.14.57,2.33,2.25,2.19C438.05,114.53,439,114.12,439,112.52Zm110,24.26c1.6.15,2.08-.9,2.14-2.12s-.61-2.32-2-2.26-2.58.62-2.55,2.25C546.59,136.13,547.76,136.57,549,136.78Zm-44,44.57c-.17-.95-.69-1.61-1.71-1.54a1.51,1.51,0,0,0-1.57,1.49,1.69,1.69,0,0,0,1.85,1.69C504.44,183,504.89,182.27,505,181.35Z" transform="translate(-34.28 -51.29)"/><path class="cls-1" d="M437.4,51.76c6.14-.06,9.79,4.18,10.05,8.91.31,5.8-4.34,10-10.43,9.89-5.23-.07-10.59-4.93-10.38-9.41C426.88,56.06,431.82,51.74,437.4,51.76Zm-.19,16.91c3.77.41,8.43-3.38,8.39-7.54-.05-4.56-4.84-7.74-8.36-7.69-4.62.06-8.15,3.38-8.16,7.78C429.06,65.46,432.57,68.66,437.21,68.67Z" transform="translate(-34.28 -51.29)"/><path class="cls-1" d="M512.09,57.3c-.13,4.17-2.25,6-6.62,6.39a6.48,6.48,0,0,1-6.84-6.33,6.18,6.18,0,0,1,6.31-6.07C509.33,51.21,512,53.48,512.09,57.3Zm-1.92.18a4.55,4.55,0,0,0-4.63-4.41c-2.7,0-4.89,1.83-4.84,4.06.07,3,1.75,4.67,4.76,4.62C508.18,61.71,510.18,59.89,510.17,57.48Z" transform="translate(-34.28 -51.29)"/><path class="cls-1" d="M503.35,194.21c-1.37-.23-2.63-.8-2.68-2.61a2.33,2.33,0,0,1,2.57-2.71c1.8,0,2.94,1,3,2.62A2.6,2.6,0,0,1,503.35,194.21Z" transform="translate(-34.28 -51.29)"/><path class="cls-1" d="M503,202.49a2,2,0,0,1-1.93-2.17,2.15,2.15,0,0,1,2.45-2.14,2.11,2.11,0,0,1,2.07,2.31C505.6,201.81,504.91,202.64,503,202.49Z" transform="translate(-34.28 -51.29)"/><text class="cls-2" transform="translate(0 85.32)">SKITSOFT</text><text class="cls-3" transform="translate(95.86 133.11)">SOLUTIONS</text></svg>