<svg id="Layer_1" data-name="Layer 1" xmlns="http://www.w3.org/2000/svg" xmlns:xlink="http://www.w3.org/1999/xlink" viewBox="0 0 48 48"><defs><style>.cls-1{fill:url(#Orange_Yellow);}.cls-2{fill:url(#Orange_Yellow-2);}.cls-3{fill:url(#Orange_Yellow-3);}.cls-4{fill:url(#Orange_Yellow-4);}.cls-5{fill:url(#Orange_Yellow-5);}.cls-6{fill:url(#Orange_Yellow-6);}.cls-7{fill:#fff;}.cls-8{fill:url(#Orange_Yellow-7);}</style><linearGradient id="Orange_Yellow" x1="6.43" y1="21.77" x2="38.41" y2="21.77" gradientUnits="userSpaceOnUse"><stop offset="0" stop-color="#fff33b"/><stop offset="0.04" stop-color="#fee72e"/><stop offset="0.12" stop-color="#fed51b"/><stop offset="0.2" stop-color="#fdca10"/><stop offset="0.28" stop-color="#fdc70c"/><stop offset="0.67" stop-color="#f3903f"/><stop offset="0.89" stop-color="#ed683c"/><stop offset="1" stop-color="#e93e3a"/></linearGradient><linearGradient id="Orange_Yellow-2" x1="16.68" y1="35.82" x2="28.17" y2="35.82" xlink:href="#Orange_Yellow"/><linearGradient id="Orange_Yellow-3" x1="25.2" y1="19.41" x2="31.2" y2="19.41" xlink:href="#Orange_Yellow"/><linearGradient id="Orange_Yellow-4" x1="13.75" y1="19.41" x2="19.75" y2="19.41" xlink:href="#Orange_Yellow"/><linearGradient id="Orange_Yellow-5" x1="20.43" y1="19.41" x2="24.52" y2="19.41" xlink:href="#Orange_Yellow"/><linearGradient id="Orange_Yellow-6" x1="29.08" y1="29.54" x2="41.57" y2="29.54" xlink:href="#Orange_Yellow"/><linearGradient id="Orange_Yellow-7" x1="32.63" y1="29.54" x2="38.01" y2="29.54" xlink:href="#Orange_Yellow"/></defs><path class="cls-1" d="M22.42,32.94c-4.62,0-9.24,0-13.87,0a2,2,0,0,1-2.12-2.12c0-6.08,0-12.15,0-18.23A1.86,1.86,0,0,1,7.8,10.68a2.66,2.66,0,0,1,.69-.08H33c1.12,0,2.24,0,3.36,0a1.94,1.94,0,0,1,2,2c0,6.14,0,12.28,0,18.42a1.82,1.82,0,0,1-1.89,1.89H22.42Zm14.71-5.1V12.58c0-.5-.19-.7-.68-.72H8.58c-.68,0-.87.19-.87.87V27.84Zm-14,2.56a.73.73,0,0,0-.7-.72.76.76,0,0,0-.71.7.72.72,0,0,0,.7.72A.69.69,0,0,0,23.13,30.4Z"/><path class="cls-2" d="M19.3,34.24h6.25c0,.27.08.54.13.81A1.27,1.27,0,0,0,27,36.14c.22,0,.43,0,.64,0a.59.59,0,0,1,.57.7.56.56,0,0,1-.64.56H17.31a.57.57,0,0,1-.62-.51.59.59,0,0,1,.47-.72,3,3,0,0,1,.67,0,1.32,1.32,0,0,0,1.39-1.27C19.24,34.67,19.27,34.47,19.3,34.24Z"/><path class="cls-3" d="M29.69,19.3c-.17-.12-.34-.24-.52-.35l-1.56-1L26,16.82l-.53-.36a.53.53,0,0,1-.14-.76.54.54,0,0,1,.74-.15l.63.42,2.15,1.43,2.1,1.39a.55.55,0,0,1,.24.69.66.66,0,0,1-.2.24c-.63.47-1.27.93-1.91,1.39l-2.83,2a1,1,0,0,1-.36.2.54.54,0,0,1-.44-1l2-1.41,2-1.42Z"/><path class="cls-4" d="M15.28,19.42l.44.28,2,1.35,1.69,1.12a.64.64,0,0,1,.32.4.57.57,0,0,1-.23.56.54.54,0,0,1-.61,0l-1.32-.88-1.79-1.19-.87-.59c-.3-.2-.6-.4-.91-.59A.57.57,0,0,1,14,19l2.27-1.5L18,16.27l.86-.58a.55.55,0,1,1,.59.93l-1.82,1.21-2.32,1.54Z"/><path class="cls-5" d="M21,24.86a.54.54,0,0,1-.52-.71c.21-.66.41-1.33.61-2l.87-2.81c.23-.78.47-1.56.71-2.34s.43-1.42.65-2.13c.06-.18.11-.36.17-.54a.54.54,0,0,1,.7-.33.54.54,0,0,1,.33.68l-.72,2.37c-.24.76-.47,1.53-.7,2.29l-.66,2.15c-.22.73-.45,1.45-.67,2.18-.08.28-.17.56-.26.84A.52.52,0,0,1,21,24.86Z"/><path class="cls-6" d="M29.08,28.85c.18-.52.62-.62,1.08-.66a.62.62,0,0,0,.59-.44.74.74,0,0,0-.13-.95,1.19,1.19,0,0,1-.16-.23.77.77,0,0,1,.07-1.05c.25-.27.5-.52.77-.76a.72.72,0,0,1,1-.07s.07,0,.09.06c.41.5.87.4,1.35.12a.25.25,0,0,0,.13-.17c.06-.25.1-.5.15-.76a.75.75,0,0,1,.79-.63h1a.75.75,0,0,1,.79.63.24.24,0,0,1,0,.08c-.06.67.34,1,.91,1.1a.28.28,0,0,0,.22,0c.2-.12.39-.27.59-.41a.74.74,0,0,1,1,.07q.4.38.78.78a.76.76,0,0,1,.07,1l-.06.09A.9.9,0,0,0,40,27.93a.48.48,0,0,0,.23.19c.21.06.43.08.65.12a.74.74,0,0,1,.68.74q0,.56,0,1.11a.76.76,0,0,1-.67.76.34.34,0,0,1-.14,0c-.64-.06-.85.38-1,.87a.33.33,0,0,0,0,.22c.13.2.28.39.42.59a.75.75,0,0,1-.07,1c-.26.27-.52.53-.79.78a.72.72,0,0,1-1,.07.18.18,0,0,1-.07,0,.94.94,0,0,0-1.35-.15.58.58,0,0,0-.18.23,1.62,1.62,0,0,0-.07.44,1,1,0,0,1-.61.9H34.58a1,1,0,0,1-.62-.93,2.12,2.12,0,0,0-.06-.43.35.35,0,0,0-.16-.2c-.69-.31-.69-.31-1.3.12a.91.91,0,0,1-.16.11.75.75,0,0,1-.94-.08c-.28-.27-.55-.54-.82-.82a.74.74,0,0,1-.08-.92,1.71,1.71,0,0,1,.2-.27.72.72,0,0,0,.13-1,.65.65,0,0,0-.58-.45c-.47,0-.92-.13-1.11-.66Zm2.76,5.08c.33-.23.62-.43.91-.65a.45.45,0,0,1,.51,0c.3.14.61.26.92.37a.46.46,0,0,1,.35.41,4.23,4.23,0,0,0,.11.62c.11.5,0,.43.5.44h.58c.15,0,.23,0,.25-.2s.12-.56.14-.85.17-.35.4-.43a4.44,4.44,0,0,0,.81-.33.57.57,0,0,1,.71,0c.25.19.54.51.79.48s.47-.4.7-.62l0,0c.13-.09.11-.19,0-.31a6.26,6.26,0,0,1-.53-.74.72.72,0,0,1,0-.46,9.1,9.1,0,0,1,.42-1,.71.71,0,0,1,.35-.29c.3-.08.62-.11.92-.18a.25.25,0,0,0,.17-.19,6.46,6.46,0,0,0,0-.88.27.27,0,0,0-.17-.19,6.64,6.64,0,0,0-.87-.16.46.46,0,0,1-.43-.39,3.86,3.86,0,0,0-.34-.81.59.59,0,0,1,0-.71,8.52,8.52,0,0,0,.53-.8c-.23-.24-.46-.47-.69-.72s-.18-.11-.3,0a5.63,5.63,0,0,1-.75.53.58.58,0,0,1-.45,0c-.35-.11-.68-.28-1-.4a.45.45,0,0,1-.33-.39c0-.28-.09-.55-.13-.82S35.88,24,35.7,24s-.53,0-.8,0a.21.21,0,0,0-.24.2c0,.29-.1.56-.14.85a.49.49,0,0,1-.36.43,7.27,7.27,0,0,0-.91.38.47.47,0,0,1-.58,0c-.23-.17-.46-.34-.71-.49a.25.25,0,0,0-.25,0c-.26.22-.51.47-.77.71.24.34.44.64.65.93a.43.43,0,0,1,0,.51,6.85,6.85,0,0,0-.38.94.49.49,0,0,1-.43.37c-.27,0-.53.09-.8.12s-.25.1-.24.29a4.7,4.7,0,0,1,0,.75c0,.19.08.26.25.28s.51.08.77.12a.48.48,0,0,1,.46.39,4.67,4.67,0,0,0,.38.89.47.47,0,0,1-.05.58c-.17.22-.31.45-.48.67s-.1.2,0,.31S31.59,33.66,31.84,33.93Z"/><path class="cls-7" d="M31.84,33.93c-.25-.27-.48-.51-.72-.74s-.1-.19,0-.31.31-.45.48-.67a.47.47,0,0,0,.05-.58,4.67,4.67,0,0,1-.38-.89.48.48,0,0,0-.46-.39c-.26,0-.51-.09-.77-.12s-.26-.09-.25-.28a4.7,4.7,0,0,0,0-.75c0-.19.06-.27.24-.29s.53-.08.8-.12a.49.49,0,0,0,.43-.37,6.85,6.85,0,0,1,.38-.94.43.43,0,0,0,0-.51c-.21-.29-.41-.59-.65-.93.26-.24.51-.49.77-.71a.25.25,0,0,1,.25,0c.25.15.48.32.71.49a.47.47,0,0,0,.58,0,7.27,7.27,0,0,1,.91-.38.49.49,0,0,0,.36-.43c0-.29.1-.56.14-.85a.21.21,0,0,1,.24-.2c.27,0,.53,0,.8,0s.24.08.26.25.09.54.13.82a.45.45,0,0,0,.33.39c.35.12.68.29,1,.4a.58.58,0,0,0,.45,0,5.63,5.63,0,0,0,.75-.53c.12-.09.2-.09.3,0s.46.48.69.72a8.52,8.52,0,0,1-.53.8.59.59,0,0,0,0,.71,3.86,3.86,0,0,1,.34.81.46.46,0,0,0,.43.39,6.64,6.64,0,0,1,.87.16.27.27,0,0,1,.17.19,6.46,6.46,0,0,1,0,.88.25.25,0,0,1-.17.19c-.3.07-.62.1-.92.18a.71.71,0,0,0-.35.29,9.1,9.1,0,0,0-.42,1,.72.72,0,0,0,0,.46,6.26,6.26,0,0,0,.53.74c.08.12.1.22,0,.31l0,0c-.23.22-.45.6-.7.62s-.54-.29-.79-.48a.57.57,0,0,0-.71,0,4.44,4.44,0,0,1-.81.33c-.23.08-.37.17-.4.43s-.11.56-.14.85-.1.21-.25.2h-.58c-.53,0-.39.06-.5-.44a4.23,4.23,0,0,1-.11-.62.46.46,0,0,0-.35-.41c-.31-.11-.62-.23-.92-.37a.45.45,0,0,0-.51,0C32.46,33.5,32.17,33.7,31.84,33.93Zm3.49-7.08A2.69,2.69,0,1,0,38,29.56,2.71,2.71,0,0,0,35.33,26.85Z"/><path class="cls-8" d="M35.33,26.85a2.69,2.69,0,1,1-2.7,2.66A2.69,2.69,0,0,1,35.33,26.85Zm0,.7a2,2,0,1,0,2,2A2,2,0,0,0,35.33,27.55Z"/><path class="cls-7" d="M35.33,27.55a2,2,0,1,1-2,1.95A2,2,0,0,1,35.33,27.55Z"/></svg>