<svg id="Layer_1" data-name="Layer 1" xmlns="http://www.w3.org/2000/svg" xmlns:xlink="http://www.w3.org/1999/xlink" viewBox="0 0 48 48"><defs><style>.cls-1{fill:url(#Orange_Yellow);}.cls-2{fill:url(#Orange_Yellow-2);}.cls-3{fill:url(#Orange_Yellow-3);}.cls-4{fill:url(#Orange_Yellow-4);}</style><linearGradient id="Orange_Yellow" x1="14.65" y1="22.28" x2="33.46" y2="22.28" gradientUnits="userSpaceOnUse"><stop offset="0" stop-color="#fff33b"/><stop offset="0.04" stop-color="#fee72e"/><stop offset="0.12" stop-color="#fed51b"/><stop offset="0.2" stop-color="#fdca10"/><stop offset="0.28" stop-color="#fdc70c"/><stop offset="0.67" stop-color="#f3903f"/><stop offset="0.89" stop-color="#ed683c"/><stop offset="1" stop-color="#e93e3a"/></linearGradient><linearGradient id="Orange_Yellow-2" x1="8.35" y1="14.76" x2="39.65" y2="14.76" xlink:href="#Orange_Yellow"/><linearGradient id="Orange_Yellow-3" x1="16.26" y1="36.5" x2="31.91" y2="36.5" xlink:href="#Orange_Yellow"/><linearGradient id="Orange_Yellow-4" x1="17.53" y1="40.79" x2="30.46" y2="40.79" xlink:href="#Orange_Yellow"/></defs><path class="cls-1" d="M23.57,18.1c0,2.13,0,4.26,0,6.39a1.14,1.14,0,0,1-.53,1.11,1.65,1.65,0,0,0-.3,2.61,1.73,1.73,0,0,0,2.54,0A1.65,1.65,0,0,0,25,25.62a1.16,1.16,0,0,1-.55-1.11c0-4.28,0-8.57,0-12.86a3.31,3.31,0,0,1,.33-.94,3.33,3.33,0,0,1,.69.72C27.28,15,29,18.57,30.85,22.13c.8,1.59,1.7,3.12,2.49,4.71a1.54,1.54,0,0,1,0,1.21c-.9,1.82-1.86,3.6-2.84,5.37a1,1,0,0,1-.69.43c-3.87,0-7.75,0-11.62,0a.94.94,0,0,1-.68-.43q-1.44-2.75-2.79-5.54a1.18,1.18,0,0,1,0-.92q3.9-7.89,7.86-15.74c.11-.21.38-.35.57-.52.13.25.36.5.36.76C23.58,13.67,23.57,15.88,23.57,18.1Z"/><path class="cls-2" d="M29.34,7.62c5.63,2.5,8.54,6.85,9.07,12.86,1.24.18,1.24.18,1.24,1.46,0,2,0,2-2,2-.14,0-.28,0-.42,0-.71.09-1.07-.16-1-.93a9.12,9.12,0,0,0,0-1.17c0-1.22,0-1.22,1.2-1.35.14-5.58-4.18-11.65-11.53-12.71C25.49,9,25.49,9,24.17,9H23.5c-1.12,0-1.12,0-1.31-1.09-5.55.42-11.71,5.8-11.67,12.59,1.26.28,1.27.28,1.26,1.67,0,2.1.29,1.84-1.82,1.83-1.77,0-1.59.31-1.61-1.6v-.59c0-1.15,0-1.15,1.25-1.23a14.6,14.6,0,0,1,2.66-7.77,18.27,18.27,0,0,1,6.42-5.13c-2.2,0-4.41,0-6.61,0-.19,0-.41.28-.57.48a1.66,1.66,0,0,1-1.89.74A1.58,1.58,0,0,1,8.36,7.28,1.68,1.68,0,0,1,9.53,5.61a1.73,1.73,0,0,1,2,.74.94.94,0,0,0,.61.42c3.31,0,6.62,0,9.93,0,.05,0,.1,0,.15-.07.16-1.15.16-1.15,1.39-1.15h.93c1.15,0,1.15,0,1.25,1.18.23,0,.47,0,.7,0h9.1a1,1,0,0,0,1-.51,1.53,1.53,0,0,1,1.91-.65,1.55,1.55,0,0,1,1.15,1.58,1.58,1.58,0,0,1-1.19,1.64,1.44,1.44,0,0,1-1.83-.62c-.33-.63-.77-.61-1.3-.61Z"/><path class="cls-3" d="M24.09,34.78c2.27,0,4.54,0,6.81,0,.74,0,1.09.22,1,1a6.93,6.93,0,0,0,0,1.51c.08.81-.39.93-1,.93h-8c-1.9,0-3.81,0-5.72,0-.64,0-.88-.2-.89-.86,0-2.58-.06-2.58,2.52-2.58Z"/><path class="cls-4" d="M30.46,39.12c0,1,0,1.82,0,2.69,0,.45-.18.66-.65.66-3.86,0-7.73,0-11.6,0a.85.85,0,0,1-.64-.53c-.07-.91,0-1.83,0-2.79Z"/></svg>