<svg id="Layer_1" data-name="Layer 1" xmlns="http://www.w3.org/2000/svg" xmlns:xlink="http://www.w3.org/1999/xlink" viewBox="0 0 48 48"><defs><style>.cls-1{fill:url(#Orange_Yellow);}.cls-2{fill:url(#Orange_Yellow-2);}.cls-3{fill:url(#Orange_Yellow-3);}.cls-4{fill:url(#Orange_Yellow-4);}.cls-5{fill:url(#Orange_Yellow-5);}.cls-6{fill:url(#Orange_Yellow-6);}.cls-7{fill:url(#Orange_Yellow-7);}.cls-8{fill:url(#Orange_Yellow-8);}.cls-9{fill:url(#Orange_Yellow-9);}.cls-10{fill:url(#Orange_Yellow-10);}.cls-11{fill:url(#Orange_Yellow-11);}.cls-12{fill:url(#Orange_Yellow-12);}.cls-13{fill:url(#Orange_Yellow-13);}.cls-14{fill:url(#Orange_Yellow-14);}.cls-15{fill:url(#Orange_Yellow-15);}.cls-16{fill:url(#Orange_Yellow-16);}.cls-17{fill:url(#Orange_Yellow-17);}</style><linearGradient id="Orange_Yellow" x1="15.52" y1="25.42" x2="33" y2="25.42" gradientUnits="userSpaceOnUse"><stop offset="0" stop-color="#fff33b"/><stop offset="0.04" stop-color="#fee72e"/><stop offset="0.12" stop-color="#fed51b"/><stop offset="0.2" stop-color="#fdca10"/><stop offset="0.28" stop-color="#fdc70c"/><stop offset="0.67" stop-color="#f3903f"/><stop offset="0.89" stop-color="#ed683c"/><stop offset="1" stop-color="#e93e3a"/></linearGradient><linearGradient id="Orange_Yellow-2" x1="8.19" y1="20.96" x2="18.36" y2="20.96" xlink:href="#Orange_Yellow"/><linearGradient id="Orange_Yellow-3" x1="29.67" y1="20.89" x2="39.81" y2="20.89" xlink:href="#Orange_Yellow"/><linearGradient id="Orange_Yellow-4" x1="8.72" y1="37.13" x2="16.39" y2="37.13" xlink:href="#Orange_Yellow"/><linearGradient id="Orange_Yellow-5" x1="31.97" y1="37.13" x2="39.58" y2="37.13" xlink:href="#Orange_Yellow"/><linearGradient id="Orange_Yellow-6" x1="20.43" y1="13.38" x2="28.05" y2="13.38" xlink:href="#Orange_Yellow"/><linearGradient id="Orange_Yellow-7" x1="17.92" y1="39.87" x2="30.57" y2="39.87" xlink:href="#Orange_Yellow"/><linearGradient id="Orange_Yellow-8" x1="10.5" y1="32.62" x2="14.51" y2="32.62" xlink:href="#Orange_Yellow"/><linearGradient id="Orange_Yellow-9" x1="33.75" y1="32.67" x2="37.76" y2="32.67" xlink:href="#Orange_Yellow"/><linearGradient id="Orange_Yellow-10" x1="22.21" y1="8.95" x2="26.22" y2="8.95" xlink:href="#Orange_Yellow"/><linearGradient id="Orange_Yellow-11" x1="20.32" y1="25.96" x2="23.22" y2="25.96" xlink:href="#Orange_Yellow"/><linearGradient id="Orange_Yellow-12" x1="20.37" y1="28.98" x2="28.12" y2="28.98" xlink:href="#Orange_Yellow"/><linearGradient id="Orange_Yellow-13" x1="24.28" y1="25.09" x2="28.07" y2="25.09" xlink:href="#Orange_Yellow"/><linearGradient id="Orange_Yellow-14" x1="24.29" y1="26.97" x2="28.08" y2="26.97" xlink:href="#Orange_Yellow"/><linearGradient id="Orange_Yellow-15" x1="25.52" y1="20.95" x2="26.94" y2="20.95" xlink:href="#Orange_Yellow"/><linearGradient id="Orange_Yellow-16" x1="27.34" y1="20.96" x2="28.79" y2="20.96" xlink:href="#Orange_Yellow"/><linearGradient id="Orange_Yellow-17" x1="29.37" y1="20.95" x2="30.79" y2="20.95" xlink:href="#Orange_Yellow"/></defs><path class="cls-1" d="M33,21.62a2.64,2.64,0,0,0-2.87-2.72H18.3a2.59,2.59,0,0,0-2.76,2.72q0,3.84,0,7.68A2.56,2.56,0,0,0,18.25,32H30.13A2.62,2.62,0,0,0,33,29.3Q33.05,25.46,33,21.62ZM18.38,19.9H30c1.4,0,2,.62,1.94,2.09H16.62C16.47,20.57,17,19.9,18.38,19.9ZM31.9,29.58c0,.93-.73,1.38-1.7,1.38H18.25c-1,0-1.65-.5-1.67-1.4,0-2.12,0-4.24,0-6.43H31.93C31.93,25.31,32,27.45,31.9,29.58Z"/><path class="cls-2" d="M17.27,13.05A14,14,0,0,0,10.1,28.88c.26,1.07-.25,1.47-.91,2-2.93-7.18.73-16.75,9.08-19.78C18.56,12.1,18.17,12.59,17.27,13.05Z"/><path class="cls-3" d="M38.78,30.77c-1-.47-1-1.23-.75-2.22A14.08,14.08,0,0,0,30.67,13a1.53,1.53,0,0,1-.92-2,15.75,15.75,0,0,1,8.9,8.68C40.29,23.51,40.06,28.61,38.78,30.77Z"/><path class="cls-4" d="M16.39,38.9H8.77c-.23-3,.23-3.53,3.12-3.53.79,0,1.57,0,2.36,0a1.92,1.92,0,0,1,2.14,2.16C16.4,38,16.39,38.4,16.39,38.9Z"/><path class="cls-5" d="M39.58,38.92H32c-.27-2.86.27-3.72,3.14-3.55.78,0,1.57,0,2.35,0a1.85,1.85,0,0,1,2.06,2C39.59,37.92,39.58,38.4,39.58,38.92Z"/><path class="cls-6" d="M28,15.15H20.48c-.21-2.65.09-3.69,3.1-3.5.82.06,1.63,0,2.45,0a1.8,1.8,0,0,1,2,1.92C28.06,14.09,28,14.61,28,15.15Z"/><path class="cls-7" d="M30.57,39.61a15.42,15.42,0,0,1-12.65.18,1.43,1.43,0,0,1,2-.81,13.14,13.14,0,0,0,8.73-.15A1.34,1.34,0,0,1,30.57,39.61Z"/><path class="cls-8" d="M14.51,32.57a2,2,0,0,1-1.91,2,2,2,0,0,1-2.1-2,2.09,2.09,0,0,1,2-2A2,2,0,0,1,14.51,32.57Z"/><path class="cls-9" d="M37.76,32.71a2,2,0,0,1-2,2,2,2,0,1,1,.08-4A2,2,0,0,1,37.76,32.71Z"/><path class="cls-10" d="M26.22,9a2,2,0,0,1-2,2,2.1,2.1,0,0,1-2-2A2,2,0,0,1,24.27,7,2,2,0,0,1,26.22,9Z"/><path class="cls-11" d="M23.22,24.54V27.4H20.33c0-.83,0-1.65,0-2.48,0-.13.29-.36.45-.37C21.57,24.51,22.35,24.54,23.22,24.54Z"/><path class="cls-12" d="M28.12,29.43H20.37v-.89h7.71C28.09,28.82,28.1,29.09,28.12,29.43Z"/><rect class="cls-13" x="24.28" y="24.59" width="3.79" height="1"/><rect class="cls-14" x="24.29" y="26.46" width="3.79" height="1.02"/><path class="cls-15" d="M26.94,20.9c-.41.31-.63.59-.86.61s-.57-.32-.56-.46a.89.89,0,0,1,.49-.64C26.22,20.37,26.49,20.65,26.94,20.9Z"/><path class="cls-16" d="M28.79,20.93c-.44.3-.69.61-.88.58a.91.91,0,0,1-.57-.59c0-.12.32-.5.52-.51S28.33,20.66,28.79,20.93Z"/><path class="cls-17" d="M30.79,21c-.43.28-.66.54-.9.55s-.55-.36-.52-.5a.86.86,0,0,1,.52-.6C30.1,20.38,30.36,20.68,30.79,21Z"/></svg>