<svg id="Layer_1" data-name="Layer 1" xmlns="http://www.w3.org/2000/svg" xmlns:xlink="http://www.w3.org/1999/xlink" viewBox="0 0 48 48"><defs><style>.cls-1{fill:url(#Orange_Yellow);}.cls-2{fill:url(#Orange_Yellow-2);}.cls-3{fill:url(#Orange_Yellow-3);}.cls-4{fill:url(#Orange_Yellow-4);}.cls-5{fill:url(#Orange_Yellow-5);}</style><linearGradient id="Orange_Yellow" x1="9.78" y1="24" x2="38.22" y2="24" gradientUnits="userSpaceOnUse"><stop offset="0" stop-color="#fff33b"/><stop offset="0.04" stop-color="#fee72e"/><stop offset="0.12" stop-color="#fed51b"/><stop offset="0.2" stop-color="#fdca10"/><stop offset="0.28" stop-color="#fdc70c"/><stop offset="0.67" stop-color="#f3903f"/><stop offset="0.89" stop-color="#ed683c"/><stop offset="1" stop-color="#e93e3a"/></linearGradient><linearGradient id="Orange_Yellow-2" x1="19.1" y1="27.23" x2="28.9" y2="27.23" xlink:href="#Orange_Yellow"/><linearGradient id="Orange_Yellow-3" x1="12.26" y1="17.56" x2="24.2" y2="17.56" xlink:href="#Orange_Yellow"/><linearGradient id="Orange_Yellow-4" x1="32.26" y1="24.1" x2="35.73" y2="24.1" xlink:href="#Orange_Yellow"/><linearGradient id="Orange_Yellow-5" x1="20.52" y1="19.13" x2="27.48" y2="19.13" xlink:href="#Orange_Yellow"/></defs><path class="cls-1" d="M9.79,20.27c0-2,0-4.08,0-6.11a1,1,0,0,1,.6-1.06c4.34-2.19,8.66-4.42,13-6.6a1.6,1.6,0,0,1,1.25,0c4.34,2.17,8.66,4.4,13,6.6a.91.91,0,0,1,.59,1c0,4,0,8.1,0,12.14a12.5,12.5,0,0,1-3.78,8.56,28.54,28.54,0,0,1-9.87,6.72,1.36,1.36,0,0,1-.95.06c-4.7-2-8.9-4.75-11.82-9.1a11.47,11.47,0,0,1-2-6.62C9.79,24,9.79,22.13,9.79,20.27Zm27.27.45h.08c0-1.94,0-3.89,0-5.84a1.11,1.11,0,0,0-.71-1.19c-4-2-7.91-4-11.87-6a1.43,1.43,0,0,0-1.13,0c-4,2-7.9,4-11.87,6a1.19,1.19,0,0,0-.74,1.27c0,3.59,0,7.18,0,10.77A11,11,0,0,0,13,32.44a25.27,25.27,0,0,0,10.58,8,1.44,1.44,0,0,0,1-.09,28.23,28.23,0,0,0,7.72-4.94c2.38-2.18,4.36-4.67,4.68-8C37.23,25.18,37.06,22.94,37.06,20.72Z"/><path class="cls-2" d="M24,22.69c1.31,0,2.62,0,3.92,0,.69,0,1,.22,1,.94,0,2.41,0,4.81,0,7.22,0,.72-.31.95-1,.95-2.59,0-5.17,0-7.76,0-.81,0-1.05-.33-1-1.1q0-3.47,0-6.93c0-.77.23-1.11,1-1.08C21.42,22.73,22.7,22.69,24,22.69Zm-1.05,3.6c-.36.94.51,2.18,1,2.89,0,0,.75-1.11.81-1.25A2.59,2.59,0,0,0,25,26.45a1.05,1.05,0,0,0-1.35-.9A1.27,1.27,0,0,0,22.93,26.29Z"/><path class="cls-3" d="M23.73,9,24,9.5c.05.1.09.21.16.39L18.33,13c-1.43.75-2.83,1.53-4.28,2.24a1.25,1.25,0,0,0-.78,1.34c0,2.83,0,5.66,0,8.48v1l-.93.05a5.18,5.18,0,0,1-.09-.73c0-3.22,0-6.45,0-9.67a1.33,1.33,0,0,1,.52-1C16.4,12.81,20,10.91,23.73,9Z"/><path class="cls-4" d="M32.94,32.83l-.68-.63c0-.1,0-.18,0-.21a10.28,10.28,0,0,0,2.46-7.51c-.11-2.67,0-5.35,0-8v-1l.87-.05c0,.12.12.2.12.27,0,3.84.08,7.67-.06,11.5C35.58,29.33,34.4,31.14,32.94,32.83Z"/><path class="cls-5" d="M21.6,22.11h-1a24.3,24.3,0,0,1,0-3.08,3.46,3.46,0,0,1,6.87.52c0,.82,0,1.63,0,2.52H26.4c0-.82,0-1.6,0-2.39a2.4,2.4,0,1,0-4.8,0C21.58,20.45,21.6,21.24,21.6,22.11Z"/></svg>