<svg id="Layer_1" data-name="Layer 1" xmlns="http://www.w3.org/2000/svg" xmlns:xlink="http://www.w3.org/1999/xlink" viewBox="0 0 48 48"><defs><style>.cls-1{fill:url(#Orange_Yellow);}</style><linearGradient id="Orange_Yellow" x1="7.39" y1="24" x2="40.61" y2="24" gradientUnits="userSpaceOnUse"><stop offset="0" stop-color="#fff33b"/><stop offset="0.04" stop-color="#fee72e"/><stop offset="0.12" stop-color="#fed51b"/><stop offset="0.2" stop-color="#fdca10"/><stop offset="0.28" stop-color="#fdc70c"/><stop offset="0.67" stop-color="#f3903f"/><stop offset="0.89" stop-color="#ed683c"/><stop offset="1" stop-color="#e93e3a"/></linearGradient></defs><path class="cls-1" d="M27.66,33.55A13.44,13.44,0,0,1,13.09,11c5.33-3.77,13.36-3,17.2,1.62l-2,1.9a11.43,11.43,0,0,0-5.39-2.84,10.59,10.59,0,0,0-11.78,6.28c-.31.78-.31.78,1,1.89L17,14.94l6.13,6.22L35,9.23H31.38v-3h9.23v9.52H37.75V11.6l-14,14.06-6.46-6.47-5.14,5.23-1.33-2.07-.55.35a27.69,27.69,0,0,0,.84,3.16,10.48,10.48,0,0,0,12.48,6.27,10.61,10.61,0,0,0,7.67-11.81,1.65,1.65,0,0,1,.33-1.1c.48-.65,1.07-1.22,1.79-2A13.53,13.53,0,0,1,32.29,29c2.33,2.36,4.63,4.67,6.91,7a3.1,3.1,0,0,1,0,4.77,3,3,0,0,1-4.53,0c-2.13-2.08-4.24-4.19-6.34-6.3A6.64,6.64,0,0,1,27.66,33.55Z"/></svg>